HIERARCHY
ROOT hips
{
	OFFSET -0.003675 0.299928 -0.021708
	CHANNELS 6 Xposition Yposition Zposition Xrotation Yrotation Zrotation
	JOINT LowerBack
	{
		OFFSET 0.000919 0.177588 0.009275
		CHANNELS 3 Xrotation Yrotation Zrotation
		JOINT spine
		{
			OFFSET 0.000919 0.177588 0.009275
			CHANNELS 3 Xrotation Yrotation Zrotation
			JOINT chest
			{
				OFFSET 0.000456 0.100015 0.004638
				CHANNELS 3 Xrotation Yrotation Zrotation
				JOINT neck
				{
					OFFSET 0.000456 0.100015 0.004638
					CHANNELS 3 Xrotation Yrotation Zrotation
					JOINT head
					{
						OFFSET 0.000924 0.155147 0.009274
						CHANNELS 6 Xposition Yposition Zposition Xrotation Yrotation Zrotation
						End Site
						{
							OFFSET 0.000000 0.153400 0.000000
						}
					}
				}
				JOINT shoulder.L
				{
					OFFSET 0.019937 0.078966 0.057518
					CHANNELS 6 Xposition Yposition Zposition Yrotation Xrotation Zrotation
					JOINT upper_arm.L
					{
						OFFSET 0.177024 -0.020465 -0.095062
						CHANNELS 6 Xposition Yposition Zposition Xrotation Yrotation Zrotation
						JOINT forearm.L
						{
							OFFSET 0.247100 -0.135500 -0.061800
							CHANNELS 3 Xrotation Yrotation Zrotation
							JOINT hand.L
							{
								OFFSET 0.217000 -0.143000 0.039300
								CHANNELS 3 Xrotation Yrotation Zrotation
								JOINT palm.01.L
								{
									OFFSET 0.021770 -0.038291 0.012954
									CHANNELS 6 Xposition Yposition Zposition Yrotation Xrotation Zrotation
									JOINT f_index.01.L
									{
										OFFSET 0.053215 -0.044137 0.008236
										CHANNELS 3 Xrotation Yrotation Zrotation
										JOINT f_index.02.L
										{
											OFFSET 0.036108 -0.024723 -0.010656
											CHANNELS 3 Xrotation Yrotation Zrotation
											JOINT f_index.03.L
											{
												OFFSET 0.021342 -0.014948 -0.010846
												CHANNELS 3 Xrotation Yrotation Zrotation
												End Site
												{
													OFFSET 0.015600 -0.009860 -0.013421
												}
											}
										}
									}
									JOINT thumb.01.L
									{
										OFFSET -0.009090 -0.002348 -0.024223
										CHANNELS 6 Xposition Yposition Zposition Xrotation Yrotation Zrotation
										JOINT thumb.02.L
										{
											OFFSET 0.019713 -0.035076 -0.011120
											CHANNELS 3 Xrotation Yrotation Zrotation
											JOINT thumb.03.L
											{
												OFFSET 0.024877 -0.021748 -0.005176
												CHANNELS 3 Xrotation Yrotation Zrotation
												End Site
												{
													OFFSET 0.016125 -0.013029 -0.001569
												}
											}
										}
									}
								}
								JOINT palm.02.L
								{
									OFFSET 0.032823 -0.025104 0.012281
									CHANNELS 6 Xposition Yposition Zposition Yrotation Xrotation Zrotation
									JOINT f_middle.01.L
									{
										OFFSET 0.055723 -0.038469 0.008037
										CHANNELS 3 Xrotation Yrotation Zrotation
										JOINT f_middle.02.L
										{
											OFFSET 0.038167 -0.027473 -0.015582
											CHANNELS 3 Xrotation Yrotation Zrotation
											JOINT f_middle.03.L
											{
												OFFSET 0.021707 -0.016587 -0.017037
												CHANNELS 3 Xrotation Yrotation Zrotation
												End Site
												{
													OFFSET 0.014112 -0.010584 -0.014294
												}
											}
										}
									}
								}
								JOINT palm.03.L
								{
									OFFSET 0.039230 -0.011402 0.008390
									CHANNELS 6 Xposition Yposition Zposition Yrotation Xrotation Zrotation
									JOINT f_ring.01.L
									{
										OFFSET 0.061796 -0.031470 0.007910
										CHANNELS 3 Xrotation Yrotation Zrotation
										JOINT f_ring.02.L
										{
											OFFSET 0.033092 -0.023401 -0.019127
											CHANNELS 3 Xrotation Yrotation Zrotation
											JOINT f_ring.03.L
											{
												OFFSET 0.021392 -0.015362 -0.017824
												CHANNELS 3 Xrotation Yrotation Zrotation
												End Site
												{
													OFFSET 0.008670 -0.007297 -0.014686
												}
											}
										}
									}
								}
								JOINT palm.04.L
								{
									OFFSET 0.043417 0.002450 0.002889
									CHANNELS 6 Xposition Yposition Zposition Yrotation Xrotation Zrotation
									JOINT f_pinky.01.L
									{
										OFFSET 0.069986 -0.026156 0.003627
										CHANNELS 3 Xrotation Yrotation Zrotation
										JOINT f_pinky.02.L
										{
											OFFSET 0.018520 -0.012813 -0.016429
											CHANNELS 3 Xrotation Yrotation Zrotation
											JOINT f_pinky.03.L
											{
												OFFSET 0.013822 -0.009796 -0.014947
												CHANNELS 3 Xrotation Yrotation Zrotation
												End Site
												{
													OFFSET 0.007238 -0.006103 -0.011657
												}
											}
										}
									}
								}
							}
						}
					}
				}
				JOINT shoulder.R
				{
					OFFSET -0.016662 0.078957 0.057696
					CHANNELS 6 Xposition Yposition Zposition Yrotation Xrotation Zrotation
					JOINT upper_arm.R
					{
						OFFSET -0.176972 -0.020537 -0.095144
						CHANNELS 6 Xposition Yposition Zposition Xrotation Yrotation Zrotation
						JOINT forearm.R
						{
							OFFSET -0.247100 -0.135500 -0.061800
							CHANNELS 3 Xrotation Yrotation Zrotation
							JOINT hand.R
							{
								OFFSET -0.217000 -0.143000 0.039300
								CHANNELS 3 Xrotation Yrotation Zrotation
								JOINT palm.01.R
								{
									OFFSET -0.021773 -0.038278 0.012988
									CHANNELS 6 Xposition Yposition Zposition Yrotation Xrotation Zrotation
									JOINT f_index.01.R
									{
										OFFSET -0.053212 -0.044139 0.008249
										CHANNELS 3 Xrotation Yrotation Zrotation
										JOINT f_index.02.R
										{
											OFFSET -0.036049 -0.024835 -0.010634
											CHANNELS 3 Xrotation Yrotation Zrotation
											JOINT f_index.03.R
											{
												OFFSET -0.021371 -0.014881 -0.010866
												CHANNELS 3 Xrotation Yrotation Zrotation
												End Site
												{
													OFFSET -0.015584 -0.009883 -0.013422
												}
											}
										}
									}
									JOINT thumb.01.R
									{
										OFFSET 0.009113 -0.002381 -0.024211
										CHANNELS 6 Xposition Yposition Zposition Xrotation Yrotation Zrotation
										JOINT thumb.02.R
										{
											OFFSET -0.019694 -0.035097 -0.011088
											CHANNELS 3 Xrotation Yrotation Zrotation
											JOINT thumb.03.R
											{
												OFFSET -0.024867 -0.021762 -0.005168
												CHANNELS 3 Xrotation Yrotation Zrotation
												End Site
												{
													OFFSET -0.016120 -0.013036 -0.001565
												}
											}
										}
									}
								}
								JOINT palm.02.R
								{
									OFFSET -0.032828 -0.025095 0.012286
									CHANNELS 6 Xposition Yposition Zposition Yrotation Xrotation Zrotation
									JOINT f_middle.01.R
									{
										OFFSET -0.055721 -0.038472 0.008040
										CHANNELS 3 Xrotation Yrotation Zrotation
										JOINT f_middle.02.R
										{
											OFFSET -0.038101 -0.027593 -0.015557
											CHANNELS 3 Xrotation Yrotation Zrotation
											JOINT f_middle.03.R
											{
												OFFSET -0.021730 -0.016530 -0.017054
												CHANNELS 3 Xrotation Yrotation Zrotation
												End Site
												{
													OFFSET -0.014096 -0.010608 -0.014293
												}
											}
										}
									}
								}
								JOINT palm.03.R
								{
									OFFSET -0.039192 -0.011488 0.008390
									CHANNELS 6 Xposition Yposition Zposition Yrotation Xrotation Zrotation
									JOINT f_ring.01.R
									{
										OFFSET -0.061839 -0.031387 0.007876
										CHANNELS 3 Xrotation Yrotation Zrotation
										JOINT f_ring.02.R
										{
											OFFSET -0.033068 -0.023437 -0.019125
											CHANNELS 3 Xrotation Yrotation Zrotation
											JOINT f_ring.03.R
											{
												OFFSET -0.021371 -0.015393 -0.017822
												CHANNELS 3 Xrotation Yrotation Zrotation
												End Site
												{
													OFFSET -0.008654 -0.007321 -0.014684
												}
											}
										}
									}
								}
								JOINT palm.04.R
								{
									OFFSET -0.043421 0.002443 0.002845
									CHANNELS 6 Xposition Yposition Zposition Yrotation Xrotation Zrotation
									JOINT f_pinky.01.R
									{
										OFFSET -0.069983 -0.026169 0.003599
										CHANNELS 3 Xrotation Yrotation Zrotation
										JOINT f_pinky.02.R
										{
											OFFSET -0.018501 -0.012842 -0.016428
											CHANNELS 3 Xrotation Yrotation Zrotation
											JOINT f_pinky.03.R
											{
												OFFSET -0.013806 -0.009821 -0.014946
												CHANNELS 3 Xrotation Yrotation Zrotation
												End Site
												{
													OFFSET -0.007226 -0.006121 -0.011655
												}
											}
										}
									}
								}
							}
						}
					}
				}
			}
		}
	}
	JOINT pelvis.L
	{
		OFFSET 0.000000 0.000000 0.000000
		CHANNELS 6 Xposition Yposition Zposition Xrotation Yrotation Zrotation
		JOINT thigh.L
		{
			OFFSET 0.101675 0.001054 -0.000000
			CHANNELS 3 Xrotation Yrotation Zrotation
			JOINT shin.L
			{
				OFFSET 0.000000 -0.534800 0.041000
				CHANNELS 3 Xrotation Yrotation Zrotation
				JOINT foot.L
				{
					OFFSET 0.000000 -0.452000 -0.044800
					CHANNELS 3 Xrotation Yrotation Zrotation
					JOINT toe.L
					{
						OFFSET -0.000000 -0.068500 0.109600
						CHANNELS 3 Xrotation Yrotation Zrotation
						End Site
						{
							OFFSET -0.000000 0.000000 0.067200
						}
					}
				}
				JOINT heel.L
				{
					OFFSET 0.000000 -0.452000 -0.044800
					CHANNELS 3 Xrotation Yrotation Zrotation
					JOINT heel.02.L
					{
						OFFSET -0.038000 -0.085200 0.016200
						CHANNELS 6 Xposition Yposition Zposition Xrotation Yrotation Zrotation
						End Site
						{
							OFFSET 0.080000 -0.000000 0.000000
						}
					}
				}
			}
		}
	}
	JOINT pelvis.R
	{
		OFFSET 0.000000 0.000000 0.000000
		CHANNELS 6 Xposition Yposition Zposition Xrotation Yrotation Zrotation
		JOINT thigh.R
		{
			OFFSET -0.094325 0.001054 0.000000
			CHANNELS 3 Xrotation Yrotation Zrotation
			JOINT shin.R
			{
				OFFSET 0.000000 -0.534800 0.041000
				CHANNELS 3 Xrotation Yrotation Zrotation
				JOINT foot.R
				{
					OFFSET 0.000000 -0.452000 -0.044800
					CHANNELS 3 Xrotation Yrotation Zrotation
					JOINT toe.R
					{
						OFFSET -0.000000 -0.068500 0.109600
						CHANNELS 3 Xrotation Yrotation Zrotation
						End Site
						{
							OFFSET -0.000000 0.000000 0.067200
						}
					}
				}
				JOINT heel.R
				{
					OFFSET 0.000000 -0.452000 -0.044800
					CHANNELS 3 Xrotation Yrotation Zrotation
					JOINT heel.02.R
					{
						OFFSET 0.038000 -0.085200 0.016200
						CHANNELS 6 Xposition Yposition Zposition Xrotation Yrotation Zrotation
						End Site
						{
							OFFSET -0.080000 0.000000 -0.000000
						}
					}
				}
			}
		}
	}
}
MOTION
Frames: 4
Frame Time: 0.041667
-0.001942 0.276521 -0.026564 13.701621 -25.062800 8.111311 -0.000001 -0.000001 0.000000 -0.000003 -0.000002 0.000001 0.000000 0.000000 -0.000001 0.000000 -0.000001 -0.000001 0.000924 0.155147 0.009274 4.172008 -0.004074 4.892172 0.019937 0.078966 0.057518 -5.580019 1.233123 26.363632 0.177024 -0.020465 -0.095062 -17.855592 14.812230 -69.961232 -30.987530 2.847864 -86.127149 -0.000001 -0.000001 -0.000002 0.021770 -0.038291 0.012954 0.000001 -0.000000 -0.000004 0.000002 -0.000004 -0.000001 -0.000000 -0.000000 0.000012 -0.000003 0.000004 0.000002 -0.009090 -0.002348 -0.024223 0.000003 -0.000005 -0.000002 -0.000002 0.000003 0.000006 -0.000002 0.000000 -0.000001 0.032823 -0.025104 0.012281 -0.000001 0.000000 0.000002 0.000000 -0.000003 -0.000004 -0.000000 -0.000001 0.000005 0.000000 -0.000002 -0.000000 0.039230 -0.011402 0.008390 -0.000000 -0.000000 0.000004 0.000002 0.000001 0.000003 -0.000000 0.000003 0.000003 0.000001 -0.000000 0.000009 0.043417 0.002450 0.002889 0.000001 0.000000 -0.000003 0.000001 0.000001 -0.000005 -0.000000 0.000008 -0.000002 0.000000 -0.000003 -0.000005 -0.016662 0.078957 0.057696 -2.273847 4.954980 -35.193059 -0.176972 -0.020537 -0.095144 -27.816888 3.446928 28.759461 -8.663093 18.216623 -11.321569 0.000002 0.000001 -0.000000 -0.021773 -0.038278 0.012988 -0.000000 -0.000001 0.000005 -0.000001 0.000003 -0.000003 -0.000003 -0.000000 -0.000004 0.000001 0.000000 0.000001 0.009114 -0.002381 -0.024211 0.000002 -0.000001 0.000001 0.000001 -0.000002 0.000000 0.000001 -0.000001 0.000001 -0.032828 -0.025095 0.012286 0.000002 0.000001 -0.000001 0.000001 0.000000 0.000001 -0.000000 0.000003 -0.000000 0.000000 0.000003 -0.000003 -0.039192 -0.011488 0.008390 0.000001 0.000001 0.000005 -0.000001 0.000004 -0.000002 -0.000000 -0.000004 -0.000002 0.000001 0.000000 -0.000001 -0.043421 0.002443 0.002845 -0.000000 0.000001 0.000004 -0.000002 0.000005 0.000001 -0.000002 -0.000005 0.000002 -0.000001 -0.000000 0.000002 0.000000 0.000000 -0.000000 -1.677967 0.069796 -1.859019 -11.981098 0.793897 11.393142 29.305374 -0.194554 1.965321 -0.000003 0.000001 -0.000001 0.000003 0.000000 -0.000001 -0.000002 0.000001 -0.000001 -0.038000 -0.085200 0.016200 -0.000003 0.000000 0.000000 0.000000 0.000000 -0.000000 -1.639752 0.068953 -0.624868 -41.435978 -0.593244 -10.750107 54.774624 -0.197904 1.998311 0.000003 0.000002 -0.000001 -0.000003 0.000002 -0.000001 0.000003 0.000000 0.000001 0.038000 -0.085200 0.016200 -0.000001 -0.000003 0.000001 
-0.000487 0.287406 -0.019512 9.206738 -54.901713 10.491245 0.000001 -0.000001 0.000000 0.000000 -0.000003 0.000000 -0.000000 0.000001 0.000000 0.000001 -0.000001 0.000000 0.000924 0.155148 0.009274 24.250448 -0.019937 5.996945 0.019937 0.078966 0.057518 -28.646975 6.653703 37.710653 0.177025 -0.020465 -0.095062 -46.031916 26.577374 -71.907487 -51.771396 -7.326716 -54.368996 -0.000003 0.000001 0.000001 0.021770 -0.038291 0.012954 0.000001 0.000004 -0.000001 0.000001 -0.000003 0.000003 0.000002 0.000001 0.000005 0.000002 -0.000000 0.000002 -0.009090 -0.002348 -0.024224 0.000006 -0.000003 0.000001 0.000003 0.000003 -0.000000 -0.000002 0.000000 0.000001 0.032823 -0.025104 0.012281 -0.000000 0.000004 0.000002 -0.000002 0.000003 -0.000007 -0.000003 -0.000001 0.000003 -0.000002 -0.000001 0.000003 0.039230 -0.011402 0.008390 0.000001 0.000002 0.000004 0.000003 0.000000 0.000001 0.000001 0.000002 0.000003 0.000003 -0.000005 0.000005 0.043417 0.002450 0.002889 -0.000000 0.000002 -0.000004 0.000003 -0.000004 0.000001 0.000001 0.000000 0.000001 0.000003 0.000000 -0.000002 -0.016662 0.078957 0.057696 -25.501614 8.898718 -27.184897 -0.176972 -0.020537 -0.095144 -8.983409 -8.419451 50.497883 -62.637718 -17.148001 74.324643 0.000002 -0.000000 0.000000 -0.021773 -0.038278 0.012988 -0.000001 -0.000003 -0.000003 -0.000001 0.000005 -0.000001 -0.000001 -0.000004 -0.000003 -0.000002 -0.000002 -0.000001 0.009113 -0.002381 -0.024212 0.000002 0.000002 -0.000001 -0.000000 -0.000005 -0.000003 -0.000004 0.000001 -0.000003 -0.032828 -0.025095 0.012286 -0.000002 -0.000001 -0.000005 0.000004 0.000003 0.000002 0.000001 0.000005 -0.000001 -0.000003 -0.000000 -0.000002 -0.039192 -0.011488 0.008390 -0.000003 0.000000 0.000001 0.000002 0.000005 0.000000 0.000000 -0.000004 -0.000000 -0.000004 0.000001 0.000004 -0.043421 0.002443 0.002845 -0.000001 -0.000000 0.000002 -0.000005 0.000003 -0.000002 0.000002 -0.000004 0.000005 -0.000001 -0.000000 -0.000001 0.000000 0.000000 0.000000 -1.379677 0.522339 -7.829945 -6.724934 0.178991 2.972549 30.443430 0.654828 -6.619627 0.000002 0.000005 -0.000003 0.000003 0.000006 -0.000003 0.000002 0.000003 -0.000001 -0.038000 -0.085200 0.016200 -0.000000 0.000004 -0.000001 -0.000000 0.000000 0.000000 -1.334560 0.516608 -6.596185 -30.587428 -0.086575 -3.406787 28.471319 2.431867 -25.371129 0.000002 0.000000 0.000001 -0.000001 0.000007 0.000003 0.000003 -0.000001 -0.000002 0.038000 -0.085200 0.016200 0.000001 -0.000001 -0.000001 
-0.000881 0.283367 -0.019280 9.496994 -57.335395 10.734561 -0.000001 0.000001 -0.000001 -0.000001 -0.000001 -0.000000 -0.000001 -0.000004 0.000000 0.000000 -0.000005 0.000000 0.000924 0.155148 0.009274 22.557567 -0.020053 3.790029 0.019937 0.078966 0.057518 -27.904685 6.534381 38.474852 0.177024 -0.020465 -0.095062 -46.886534 26.529652 -71.092816 -54.711987 -8.413499 -53.007486 -0.000001 -0.000001 -0.000002 0.021770 -0.038291 0.012954 0.000001 -0.000002 -0.000002 -0.000004 -0.000003 -0.000001 -0.000000 -0.000002 0.000008 -0.000002 0.000000 -0.000001 -0.009090 -0.002348 -0.024223 -0.000003 -0.000002 0.000001 -0.000001 0.000002 -0.000000 -0.000001 0.000001 -0.000002 0.032823 -0.025104 0.012281 0.000001 -0.000006 0.000002 -0.000005 0.000004 -0.000005 0.000000 -0.000002 -0.000004 -0.000003 -0.000002 0.000004 0.039230 -0.011402 0.008390 0.000002 -0.000003 0.000003 0.000004 -0.000002 -0.000000 0.000001 0.000004 0.000005 -0.000003 -0.000002 0.000001 0.043417 0.002450 0.002889 0.000001 -0.000004 -0.000003 0.000000 -0.000006 0.000001 -0.000000 -0.000003 0.000001 0.000001 0.000000 -0.000002 -0.016662 0.078956 0.057696 -24.162166 8.313852 -27.177343 -0.176972 -0.020537 -0.095144 -10.992584 -8.455832 51.858986 -63.916910 -13.737047 70.925695 -0.000003 0.000001 0.000000 -0.021773 -0.038278 0.012988 0.000001 -0.000001 -0.000003 -0.000004 0.000003 -0.000006 0.000001 0.000003 -0.000001 0.000003 -0.000002 0.000003 0.009113 -0.002381 -0.024211 -0.000002 -0.000000 -0.000001 -0.000002 -0.000003 -0.000002 -0.000004 0.000001 0.000001 -0.032828 -0.025095 0.012286 0.000003 -0.000002 -0.000003 -0.000004 0.000002 0.000001 0.000000 0.000000 -0.000002 -0.000008 -0.000000 -0.000002 -0.039192 -0.011488 0.008390 -0.000000 -0.000001 -0.000002 0.000000 0.000006 -0.000003 -0.000003 -0.000000 0.000005 -0.000001 -0.000004 0.000002 -0.043421 0.002443 0.002845 0.000001 -0.000001 -0.000001 -0.000007 0.000011 -0.000001 -0.000000 -0.000003 0.000002 0.000001 0.000002 0.000003 0.000000 0.000000 0.000000 -1.434760 0.542386 -7.995391 -6.965304 0.140554 2.497149 30.085610 0.510793 -5.158522 -0.000002 -0.000001 -0.000001 -0.000003 0.000002 0.000001 0.000000 -0.000003 -0.000001 -0.038000 -0.085200 0.016200 -0.000003 -0.000001 -0.000003 0.000000 0.000000 0.000000 -1.387606 0.536268 -6.761650 -28.516588 -0.064105 -3.030584 19.337765 2.420793 -25.247357 0.000002 0.000002 0.000003 0.000000 -0.000001 0.000001 0.000005 -0.000002 0.000005 0.038000 -0.085200 0.016200 -0.000002 0.000003 -0.000002 
-0.000207 0.282609 -0.018443 11.905476 -62.285731 12.334411 -0.000001 0.000001 -0.000000 -0.000001 -0.000001 0.000000 0.000000 -0.000003 0.000000 -0.000001 -0.000002 -0.000000 0.000924 0.155148 0.009274 21.073563 -0.020128 3.622078 0.019937 0.078966 0.057518 -30.040043 6.820183 39.063945 0.177025 -0.020466 -0.095062 -47.453091 25.788950 -69.552602 -57.536837 -10.390430 -50.960578 -0.000003 -0.000001 0.000005 0.021770 -0.038291 0.012954 0.000001 -0.000002 -0.000000 -0.000002 -0.000002 0.000001 -0.000002 -0.000000 0.000003 -0.000002 0.000002 0.000002 -0.009090 -0.002348 -0.024223 -0.000002 -0.000002 0.000001 -0.000006 -0.000001 0.000003 0.000000 -0.000000 0.000001 0.032823 -0.025104 0.012281 0.000001 -0.000007 -0.000001 0.000002 -0.000003 -0.000004 -0.000002 0.000002 -0.000000 0.000002 -0.000002 0.000002 0.039230 -0.011402 0.008390 0.000001 -0.000001 0.000003 0.000004 0.000000 0.000001 -0.000003 0.000002 0.000003 0.000003 -0.000006 0.000002 0.043417 0.002450 0.002889 -0.000000 -0.000001 -0.000003 -0.000003 -0.000005 0.000003 0.000001 -0.000001 -0.000000 -0.000003 -0.000004 -0.000001 -0.016662 0.078956 0.057696 -25.479363 8.521651 -26.897901 -0.176972 -0.020537 -0.095144 -14.684249 -7.705882 50.964734 -66.325809 -6.361441 64.332684 0.000005 0.000002 -0.000002 -0.021773 -0.038278 0.012988 0.000002 -0.000000 -0.000003 -0.000003 0.000002 -0.000001 -0.000002 -0.000002 -0.000005 -0.000001 0.000000 0.000004 0.009114 -0.002381 -0.024211 -0.000004 -0.000003 -0.000001 0.000002 0.000004 0.000000 0.000002 0.000003 -0.000003 -0.032828 -0.025095 0.012286 0.000001 0.000003 -0.000003 0.000001 -0.000001 0.000002 -0.000003 0.000003 -0.000003 -0.000007 -0.000001 -0.000004 -0.039192 -0.011488 0.008390 -0.000001 0.000002 -0.000000 0.000001 -0.000001 -0.000005 -0.000005 -0.000000 -0.000000 -0.000006 0.000004 0.000000 -0.043421 0.002443 0.002845 -0.000001 0.000004 -0.000003 -0.000006 0.000007 -0.000001 -0.000003 -0.000001 0.000003 -0.000000 0.000003 0.000001 0.000000 0.000000 -0.000000 -1.449708 0.600311 -8.703147 -7.498682 0.142808 2.556766 30.266604 0.565263 -5.710659 0.000002 -0.000002 -0.000000 0.000003 0.000001 -0.000002 0.000003 -0.000001 0.000002 -0.038000 -0.085200 0.016200 0.000003 0.000003 -0.000004 -0.000000 0.000000 -0.000000 -1.400361 0.593282 -7.469464 -30.438168 0.020796 -2.034668 14.343783 2.552151 -26.724647 -0.000003 0.000003 -0.000005 0.000000 0.000000 -0.000001 0.000005 0.000005 -0.000000 0.038000 -0.085200 0.016200 0.000002 -0.000002 -0.000002 
